<svg width="45" height="29" viewBox="0 0 45 29" fill="none" xmlns="http://www.w3.org/2000/svg">
<path d="M42.1617 0H2.37531C1.06346 0 0 1.06815 0 2.38578V25.7068C0 27.0244 1.06346 28.0926 2.37531 28.0926H42.1617C43.4736 28.0926 44.537 27.0244 44.537 25.7068V2.38578C44.537 1.06815 43.4736 0 42.1617 0Z" fill="#0E4595"/>
<path d="M16.52 19.9348L18.5011 8.25867H21.6697L19.6873 19.9348H16.52Z" fill="white"/>
<path d="M31.1347 8.51054C30.5069 8.27399 29.5233 8.02014 28.2949 8.02014C25.164 8.02014 22.9585 9.60376 22.9397 11.8734C22.9221 13.5512 24.5142 14.4871 25.7161 15.0456C26.9494 15.6179 27.3641 15.9829 27.3582 16.494C27.3504 17.2766 26.3733 17.6342 25.4625 17.6342C24.1943 17.6342 23.5205 17.4572 22.48 17.0213L22.0717 16.8357L21.627 19.4495C22.367 19.7754 23.7356 20.0578 25.1565 20.0725C28.4873 20.0725 30.6495 18.507 30.6741 16.0833C30.686 14.7551 29.8418 13.7442 28.0138 12.9109C26.9062 12.3708 26.228 12.0104 26.2352 11.4634C26.2352 10.9781 26.8093 10.4591 28.0497 10.4591C29.0859 10.443 29.8364 10.6699 30.4212 10.9065L30.7052 11.0412L31.1347 8.51054Z" fill="white"/>
<path d="M39.2885 8.25867H36.8401C36.0816 8.25867 35.514 8.46659 35.1809 9.22694L30.4751 19.9274H33.8024C33.8024 19.9274 34.3464 18.4886 34.4695 18.1727C34.8331 18.1727 38.0653 18.1777 38.5275 18.1777C38.6222 18.5865 38.913 19.9274 38.913 19.9274H41.8531L39.2885 8.25867ZM35.4039 15.7982C35.6659 15.1254 36.6663 12.5342 36.6663 12.5342C36.6476 12.5653 36.9264 11.8582 37.0864 11.4198L37.3006 12.4265C37.3006 12.4265 37.9073 15.2136 38.0341 15.7981H35.4039V15.7982Z" fill="white"/>
<path d="M2.72432 8.25861L2.68384 8.50161C3.93628 8.80613 5.05494 9.24678 6.03432 9.79504L8.84584 19.9162L12.1983 19.9122L17.1867 8.25861H13.8303L10.7281 16.2209L10.3976 14.6028C10.3823 14.5534 10.3657 14.5039 10.3487 14.4543L9.26998 9.24437C9.07818 8.50502 8.52185 8.28437 7.83366 8.25861H2.72432Z" fill="white"/>
</svg>
