<svg width="28" height="29" viewBox="0 0 28 29" fill="none" xmlns="http://www.w3.org/2000/svg">
<path d="M19.7539 0H8.57037C4.02531 0 0.327637 3.85612 0.327637 8.59595V20.2587C0.327637 24.9985 4.02531 28.8546 8.57037 28.8546H19.7539C24.2989 28.8546 27.9966 24.9985 27.9966 20.2587V8.59595C27.9965 3.85612 24.2989 0 19.7539 0ZM25.2131 20.2587C25.2131 23.4029 22.7689 25.9519 19.7539 25.9519H8.57037C5.55534 25.9519 3.11113 23.4029 3.11113 20.2587V8.59595C3.11113 5.45167 5.55534 2.90277 8.57037 2.90277H19.7539C22.7689 2.90277 25.2131 5.45167 25.2131 8.59595V20.2587Z" fill="url(#paint0_linear_6_492)"/>
<path d="M14.162 6.96448C10.2161 6.96448 7.00586 10.3123 7.00586 14.4273C7.00586 18.5422 10.2161 21.8901 14.162 21.8901C18.108 21.8901 21.3182 18.5423 21.3182 14.4273C21.3182 10.3122 18.108 6.96448 14.162 6.96448ZM14.162 18.9874C11.747 18.9874 9.78935 16.9458 9.78935 14.4273C9.78935 11.9088 11.7471 9.86725 14.162 9.86725C16.577 9.86725 18.5347 11.9088 18.5347 14.4273C18.5347 16.9457 16.577 18.9874 14.162 18.9874Z" fill="url(#paint1_linear_6_492)"/>
<path d="M21.3322 8.80874C22.2792 8.80874 23.047 8.00811 23.047 7.02049C23.047 6.03287 22.2792 5.23224 21.3322 5.23224C20.3852 5.23224 19.6174 6.03287 19.6174 7.02049C19.6174 8.00811 20.3852 8.80874 21.3322 8.80874Z" fill="url(#paint2_linear_6_492)"/>
<defs>
<linearGradient id="paint0_linear_6_492" x1="14.1621" y1="28.7706" x2="14.1621" y2="0.224119" gradientUnits="userSpaceOnUse">
<stop stop-color="#E09B3D"/>
<stop offset="0.3" stop-color="#C74C4D"/>
<stop offset="0.6" stop-color="#C21975"/>
<stop offset="1" stop-color="#7024C4"/>
</linearGradient>
<linearGradient id="paint1_linear_6_492" x1="14.162" y1="28.7706" x2="14.162" y2="0.224121" gradientUnits="userSpaceOnUse">
<stop stop-color="#E09B3D"/>
<stop offset="0.3" stop-color="#C74C4D"/>
<stop offset="0.6" stop-color="#C21975"/>
<stop offset="1" stop-color="#7024C4"/>
</linearGradient>
<linearGradient id="paint2_linear_6_492" x1="21.3322" y1="28.7706" x2="21.3322" y2="0.224095" gradientUnits="userSpaceOnUse">
<stop stop-color="#E09B3D"/>
<stop offset="0.3" stop-color="#C74C4D"/>
<stop offset="0.6" stop-color="#C21975"/>
<stop offset="1" stop-color="#7024C4"/>
</linearGradient>
</defs>
</svg>
