<svg width="29" height="29" viewBox="0 0 29 29" fill="none" xmlns="http://www.w3.org/2000/svg">
<g clip-path="url(#clip0_6_484)">
<path d="M25.7018 16.703C26.5469 9.45688 25.2957 4.88221 23.039 2.81309L23.0401 2.81189C19.3977 -0.721599 7.09633 -1.24459 2.73858 2.97059C0.781606 5.0325 0.0922972 8.05863 0.0167566 11.8049C-0.0587841 15.5524 -0.148489 22.5725 6.27365 24.4769H6.27955L6.27365 27.3852C6.27365 27.3852 6.22998 28.5635 6.96886 28.8003C7.81397 29.0792 8.19639 28.5322 10.825 25.3341C15.2205 25.7225 18.5962 24.8328 18.9798 24.703C19.8674 24.4 24.8897 23.7231 25.7018 16.703ZM11.2582 23.2879C11.2582 23.2879 8.47613 26.8214 7.61096 27.7387C7.32768 28.0369 7.01725 28.0092 7.02197 27.4177C7.02197 27.0294 7.04322 22.5893 7.04322 22.5893C1.59839 20.9999 1.91944 15.0222 1.97845 11.8951C2.03747 8.76677 2.5993 6.20472 4.25648 4.47945C8.07954 0.828136 18.8642 1.64448 21.6119 4.27506C24.9711 7.30841 23.7755 15.8782 23.7826 16.1704C23.0921 22.0303 19.0223 22.4018 18.274 22.6555C17.9541 22.7637 14.9856 23.5416 11.2582 23.2879Z" fill="#8E24AA"/>
<path d="M12.7974 5.1662C12.3429 5.1662 12.3429 5.88756 12.7974 5.89358C16.323 5.92123 19.2266 8.42437 19.2584 13.0159C19.2584 13.5004 19.9548 13.4944 19.9489 13.0099H19.9478C19.91 8.06248 16.7396 5.19385 12.7974 5.1662Z" fill="#8E24AA"/>
<path d="M17.4348 12.2548C17.4241 12.7333 18.1193 12.7562 18.1252 12.2717C18.1831 9.54369 16.5318 7.29664 13.4287 7.05979C12.9743 7.02612 12.9271 7.7535 13.3804 7.78717C16.0715 7.99516 17.489 9.8659 17.4348 12.2548Z" fill="#8E24AA"/>
<path d="M16.6911 15.3579C16.108 15.0141 15.5143 15.2281 15.2688 15.5659L14.7554 16.2428C14.4945 16.5867 14.0071 16.541 14.0071 16.541C10.4496 15.5828 9.49822 11.7908 9.49822 11.7908C9.49822 11.7908 9.45455 11.2774 9.78032 11.0021L10.4224 10.4611C10.7435 10.2014 10.9465 9.57619 10.6195 8.96182C9.74609 7.35438 9.15947 6.80013 8.86085 6.37453C8.54688 5.97417 8.07475 5.884 7.58374 6.15451H7.57311C6.55214 6.76286 5.43437 7.90142 5.79201 9.07364C6.40223 10.3096 7.52354 14.2494 11.0976 17.2263C12.7772 18.6341 15.4352 20.0769 16.5636 20.4099L16.5743 20.4267C17.6861 20.8042 18.7673 19.6212 19.3445 18.55V18.5416C19.6006 18.0234 19.5156 17.5329 19.1415 17.2118C18.4781 16.553 17.4772 15.8256 16.6911 15.3579Z" fill="#8E24AA"/>
<path d="M13.9149 9.74328C15.0492 9.81061 15.5993 10.4142 15.6583 11.6537C15.6795 12.1382 16.37 12.1045 16.3488 11.62C16.2732 10.0018 15.4446 9.10006 13.9527 9.01591C13.4983 8.98825 13.4558 9.71563 13.9149 9.74328Z" fill="#8E24AA"/>
</g>
<defs>
<clipPath id="clip0_6_484">
<rect width="28.3278" height="28.8546" fill="white"/>
</clipPath>
</defs>
</svg>
